<svg xmlns="http://www.w3.org/2000/svg" width="24" height="24" viewBox="0 0 24 24" fill="none" stroke="currentColor" stroke-width="1.8" stroke-linecap="round" stroke-linejoin="round">
  <circle cx="12" cy="12" r="3"/>
  <path d="M19.4 15a1.6 1.6 0 0 0 .32 1.76l.06.06a2 2 0 1 1-2.83 2.83l-.06-.06A1.6 1.6 0 0 0 15 19.4a1.6 1.6 0 0 0-1 .9 1.6 1.6 0 0 0-.1.6V21a2 2 0 1 1-4 0v-.1a1.6 1.6 0 0 0-1.1-1.5 1.6 1.6 0 0 0-1.76.32l-.06.06a2 2 0 1 1-2.83-2.83l.06-.06A1.6 1.6 0 0 0 4.6 15a1.6 1.6 0 0 0-.9-1 1.6 1.6 0 0 0-.6-.1H3a2 2 0 1 1 0-4h.1a1.6 1.6 0 0 0 1.5-1.1 1.6 1.6 0 0 0-.32-1.76l-.06-.06a2 2 0 1 1 2.83-2.83l.06.06A1.6 1.6 0 0 0 9 4.6a1.6 1.6 0 0 0 1-.9 1.6 1.6 0 0 0 .1-.6V3a2 2 0 1 1 4 0v.1a1.6 1.6 0 0 0 1.1 1.5 1.6 1.6 0 0 0 1.76-.32l.06-.06a2 2 0 1 1 2.83 2.83l-.06.06A1.6 1.6 0 0 0 19.4 9c.4.1.8.1 1.2.1h.1a2 2 0 1 1 0 4h-.1a1.6 1.6 0 0 0-1.5 1.1z"/>
</svg>
